<svg id="svg" version="1.1" width="983" height="343" viewBox="0 0 983 343" xmlns="http://www.w3.org/2000/svg"><path d="M0.000 171.500 L 0.000 343.000 491.500 343.000 L 983.000 343.000 983.000 171.500 L 983.000 0.000 491.500 0.000 L 0.000 0.000 0.000 171.500 M25.388 6.559 C 28.496 8.736,30.986 13.278,30.993 16.782 C 31.016 28.256,19.740 35.187,9.301 30.116 C 5.826 28.427,4.430 26.965,2.822 23.331 C 1.026 19.271,0.923 18.201,1.984 14.660 C 4.921 4.857,16.992 0.679,25.388 6.559 M349.434 17.482 C 378.883 24.125,405.809 45.525,416.373 70.684 C 421.955 83.976,423.374 91.372,423.439 107.500 C 423.500 122.477,423.280 123.989,418.887 138.836 C 409.981 168.932,381.964 192.522,345.000 201.048 C 336.125 203.095,308.482 202.530,297.165 200.070 C 286.495 197.750,271.409 191.457,262.902 185.775 C 255.490 180.826,243.114 169.286,238.548 163.066 C 233.609 156.337,227.694 144.000,224.347 133.447 C 221.706 125.119,221.514 123.392,221.568 108.500 C 221.637 89.253,223.296 81.944,231.193 66.091 C 235.477 57.488,237.928 54.059,245.312 46.336 C 261.411 29.496,278.876 20.354,302.500 16.402 C 312.763 14.686,339.794 15.307,349.434 17.482 M82.000 34.116 C 107.775 67.329,114.450 76.007,129.156 95.424 C 137.455 106.382,145.105 116.269,146.154 117.396 C 147.203 118.522,149.698 121.819,151.697 124.722 C 153.697 127.625,155.708 130.000,156.166 130.000 C 156.625 130.000,157.007 105.362,157.015 75.250 C 157.024 45.138,157.393 19.929,157.837 19.230 C 158.457 18.253,163.696 18.022,180.571 18.230 L 202.500 18.500 202.500 96.000 L 202.500 173.500 198.000 174.052 C 187.054 175.396,180.000 183.401,180.000 194.480 L 180.000 200.060 167.353 199.780 L 154.707 199.500 144.910 186.500 C 139.523 179.350,134.411 172.600,133.550 171.500 C 132.690 170.400,125.254 160.725,117.026 150.000 C 108.798 139.275,99.979 127.800,97.428 124.500 C 70.413 89.549,63.618 81.049,63.102 81.564 C 62.771 81.895,62.275 108.566,62.000 140.833 L 61.500 199.500 39.744 199.770 L 17.988 200.039 18.244 119.770 L 18.500 39.500 22.500 38.939 C 32.037 37.601,40.000 29.225,40.000 20.532 L 40.000 18.000 54.750 18.004 L 69.500 18.009 82.000 34.116 M535.922 19.027 C 546.563 20.148,562.878 24.564,572.512 28.933 C 589.778 36.762,605.767 52.380,612.985 68.468 C 619.662 83.349,620.498 87.785,620.431 108.000 C 620.374 125.222,620.180 127.118,617.631 135.451 C 610.401 159.080,596.365 176.071,574.580 187.564 C 565.386 192.414,557.382 195.051,543.890 197.674 C 535.644 199.278,528.958 199.500,489.000 199.500 L 443.500 199.500 443.500 116.800 C 443.500 71.315,443.660 30.478,443.856 26.050 L 444.212 18.000 485.356 18.017 C 507.985 18.027,530.740 18.481,535.922 19.027 M749.610 38.500 C 754.261 49.500,758.690 59.850,759.452 61.500 C 763.103 69.409,772.089 90.478,779.711 109.000 C 784.351 120.275,788.756 130.850,789.500 132.500 C 792.314 138.744,817.000 198.775,817.000 199.373 C 817.000 199.718,806.523 200.000,793.717 200.000 L 770.434 200.000 764.072 183.750 C 760.573 174.813,757.086 166.482,756.324 165.239 L 754.939 162.977 715.219 163.239 L 675.500 163.500 673.547 167.500 C 672.473 169.700,669.033 177.800,665.901 185.500 L 660.207 199.500 637.604 199.769 C 621.960 199.955,615.000 199.706,615.000 198.961 C 615.000 198.368,617.534 191.722,620.632 184.192 C 623.729 176.661,627.136 168.250,628.203 165.500 C 630.675 159.128,661.557 84.986,664.227 79.014 C 665.329 76.547,668.250 69.572,670.717 63.514 C 673.184 57.456,676.553 49.575,678.202 46.000 C 679.852 42.425,682.496 36.011,684.077 31.746 C 685.658 27.482,687.654 22.637,688.511 20.980 L 690.069 17.966 715.611 18.233 L 741.153 18.500 749.610 38.500 M877.427 31.037 C 877.816 38.207,878.071 69.595,877.991 100.787 C 877.912 131.979,877.882 158.508,877.924 159.740 L 878.000 161.980 923.750 162.240 L 969.500 162.500 969.772 181.257 L 970.044 200.014 901.772 199.757 L 833.500 199.500 833.245 108.750 L 832.989 18.000 854.854 18.000 L 876.718 18.000 877.427 31.037 M305.301 55.995 C 281.717 64.381,269.116 80.183,267.376 103.554 C 266.062 121.191,270.188 133.559,281.436 145.708 C 291.938 157.051,305.862 163.000,321.910 163.000 C 333.402 163.000,339.670 161.672,349.000 157.259 C 363.564 150.370,373.851 136.681,377.583 119.222 C 379.116 112.053,379.196 109.769,378.185 102.177 C 376.630 90.497,374.583 84.728,369.370 77.338 C 361.788 66.587,351.503 59.272,338.846 55.628 C 330.796 53.310,312.282 53.513,305.301 55.995 M488.000 108.371 L 488.000 162.000 506.750 161.992 C 533.858 161.982,542.706 160.099,555.289 151.664 C 562.450 146.863,569.303 137.533,572.932 127.643 C 576.046 119.157,576.873 102.919,574.636 94.207 C 569.755 75.203,558.271 63.687,538.000 57.469 C 533.834 56.191,527.103 55.656,510.250 55.262 L 488.000 54.742 488.000 108.371 M709.013 76.718 C 706.102 83.748,703.136 90.850,702.421 92.500 C 695.956 107.424,689.037 125.655,689.440 126.705 C 690.186 128.648,739.836 128.590,740.583 126.645 C 741.138 125.198,740.422 123.219,731.480 101.500 C 728.310 93.800,723.642 82.355,721.108 76.067 C 718.574 69.778,716.006 64.476,715.403 64.284 C 714.800 64.092,711.924 69.687,709.013 76.718 M211.696 182.956 C 215.801 185.459,218.048 188.937,218.700 193.799 C 220.434 206.730,202.927 214.127,193.321 204.521 C 190.313 201.513,190.000 200.646,190.000 195.323 C 190.000 188.737,191.447 185.918,196.367 182.918 C 200.489 180.404,207.540 180.422,211.696 182.956 M659.110 268.534 C 664.306 270.361,671.000 274.600,671.000 276.062 C 671.000 276.631,669.790 278.137,668.311 279.409 L 665.622 281.722 658.270 278.230 C 651.631 275.078,650.105 274.745,642.555 274.800 C 633.255 274.869,626.865 276.387,624.398 279.113 C 623.499 280.106,622.534 282.953,622.254 285.440 C 621.277 294.109,624.937 296.343,646.000 299.929 C 658.861 302.118,663.259 303.664,668.015 307.666 C 676.104 314.472,675.899 327.006,667.592 333.634 C 662.164 337.965,655.395 340.127,645.500 340.688 C 631.745 341.469,617.385 337.734,610.897 331.689 L 608.801 329.737 611.876 326.662 L 614.951 323.588 617.756 325.662 C 625.548 331.422,628.934 332.436,640.500 332.469 C 653.502 332.506,655.822 331.973,660.482 327.882 C 663.307 325.401,664.000 324.069,664.000 321.119 C 664.000 319.098,663.344 316.508,662.542 315.364 C 660.252 312.094,652.098 309.153,639.292 306.978 C 619.118 303.551,611.996 298.364,612.004 287.102 C 612.011 276.443,619.408 269.557,633.608 266.991 C 640.159 265.807,653.684 266.625,659.110 268.534 M337.118 269.000 C 338.304 271.167,349.716 295.520,352.582 302.000 C 353.920 305.025,358.342 314.250,362.409 322.500 C 366.476 330.750,369.459 337.866,369.037 338.314 C 368.616 338.762,366.298 338.987,363.886 338.814 L 359.500 338.500 355.556 330.250 L 351.611 322.000 331.430 322.000 L 311.249 322.000 307.171 330.500 L 303.092 339.000 298.546 339.000 C 296.046 339.000,294.000 338.650,294.000 338.222 C 294.000 337.003,304.819 313.439,315.380 291.659 C 320.671 280.746,325.000 271.557,325.000 271.238 C 325.000 270.919,325.764 269.813,326.698 268.781 C 328.754 266.510,335.836 266.659,337.118 269.000 M454.118 268.895 C 458.976 270.407,463.696 273.731,467.242 278.139 C 469.487 280.929,470.292 283.144,470.696 287.639 C 471.443 295.960,469.700 301.353,464.620 306.433 C 458.202 312.850,453.328 314.223,434.500 314.913 L 418.500 315.500 418.218 327.303 L 417.936 339.107 413.218 338.803 L 408.500 338.500 408.500 304.000 C 408.500 283.453,408.890 268.950,409.465 268.139 C 410.244 267.039,414.277 266.873,430.465 267.274 C 441.484 267.546,452.128 268.276,454.118 268.895 M554.126 268.533 C 570.106 272.673,577.334 284.300,572.480 298.056 C 570.172 304.597,566.604 308.562,560.257 311.637 C 554.826 314.268,553.581 314.449,538.281 314.815 L 522.062 315.204 521.781 326.852 L 521.500 338.500 517.000 338.500 L 512.500 338.500 512.237 304.118 C 512.082 283.956,512.358 269.274,512.904 268.618 C 514.494 266.707,546.821 266.640,554.126 268.533 M418.440 276.296 C 418.166 277.009,418.068 284.096,418.221 292.046 L 418.500 306.500 432.000 306.795 C 440.280 306.976,447.162 306.630,449.798 305.902 C 458.554 303.481,463.298 295.536,461.027 287.099 C 458.619 278.159,450.819 275.000,431.153 275.000 C 422.072 275.000,418.810 275.333,418.440 276.296 M522.000 291.090 L 522.000 307.179 537.250 306.823 C 550.718 306.508,552.994 306.204,556.729 304.223 C 562.456 301.186,564.335 297.306,563.782 289.659 C 563.390 284.244,562.987 283.328,559.779 280.555 C 554.835 276.281,549.001 275.000,534.486 275.000 L 522.000 275.000 522.000 291.090 M327.085 287.263 C 325.206 291.793,321.741 299.385,319.384 304.132 C 317.027 308.880,315.376 313.043,315.716 313.382 C 316.817 314.484,347.000 314.086,347.000 312.970 C 347.000 311.718,343.523 303.422,338.209 292.000 C 336.035 287.325,333.942 282.488,333.560 281.250 C 332.321 277.237,330.567 278.865,327.085 287.263 " stroke="none" fill="black" fill-rule="evenodd"/></svg>