<svg id="svg" version="1.1" width="983" height="343" viewBox="0 0 983 343" xmlns="http://www.w3.org/2000/svg"><path d="M12.749 4.281 C 7.807 5.491,3.481 9.661,1.984 14.660 C 0.923 18.201,1.026 19.271,2.822 23.331 C 7.814 34.616,24.911 34.636,29.621 23.364 C 34.316 12.128,24.776 1.337,12.749 4.281 M302.500 16.402 C 278.876 20.354,261.411 29.496,245.312 46.336 C 237.928 54.059,235.477 57.488,231.193 66.091 C 223.296 81.944,221.637 89.253,221.568 108.500 C 221.514 123.392,221.706 125.119,224.347 133.447 C 227.694 144.000,233.609 156.337,238.548 163.066 C 243.114 169.286,255.490 180.826,262.902 185.775 C 271.409 191.457,286.495 197.750,297.165 200.070 C 308.482 202.530,336.125 203.095,345.000 201.048 C 381.964 192.522,409.981 168.932,418.887 138.836 C 423.280 123.989,423.500 122.477,423.439 107.500 C 423.374 91.372,421.955 83.976,416.373 70.684 C 405.809 45.525,378.883 24.125,349.434 17.482 C 339.794 15.307,312.763 14.686,302.500 16.402 M40.000 20.532 C 40.000 29.225,32.037 37.601,22.500 38.939 L 18.500 39.500 18.244 119.770 L 17.988 200.039 39.744 199.770 L 61.500 199.500 62.000 140.833 C 62.275 108.566,62.771 81.895,63.102 81.564 C 63.618 81.049,70.413 89.549,97.428 124.500 C 99.979 127.800,108.798 139.275,117.026 150.000 C 125.254 160.725,132.690 170.400,133.550 171.500 C 134.411 172.600,139.523 179.350,144.910 186.500 L 154.707 199.500 167.353 199.780 L 180.000 200.060 180.000 194.480 C 180.000 183.401,187.054 175.396,198.000 174.052 L 202.500 173.500 202.500 96.000 L 202.500 18.500 180.571 18.230 C 163.696 18.022,158.457 18.253,157.837 19.230 C 157.393 19.929,157.024 45.138,157.015 75.250 C 157.007 105.362,156.625 130.000,156.166 130.000 C 155.708 130.000,153.697 127.625,151.697 124.722 C 149.698 121.819,147.203 118.522,146.154 117.396 C 145.105 116.269,137.455 106.382,129.156 95.424 C 114.450 76.007,107.775 67.329,82.000 34.116 L 69.500 18.009 54.750 18.004 L 40.000 18.000 40.000 20.532 M443.856 26.050 C 443.660 30.478,443.500 71.315,443.500 116.800 L 443.500 199.500 489.000 199.500 C 528.958 199.500,535.644 199.278,543.890 197.674 C 557.382 195.051,565.386 192.414,574.580 187.564 C 596.365 176.071,610.401 159.080,617.631 135.451 C 620.180 127.118,620.374 125.222,620.431 108.000 C 620.486 91.397,620.257 88.756,618.203 82.247 C 615.175 72.653,610.707 62.816,607.292 58.221 C 593.223 39.296,579.393 29.858,555.696 23.010 C 540.792 18.704,531.392 18.037,485.356 18.017 L 444.212 18.000 443.856 26.050 M688.511 20.980 C 687.654 22.637,685.658 27.482,684.077 31.746 C 682.496 36.011,679.852 42.425,678.202 46.000 C 676.553 49.575,673.184 57.456,670.717 63.514 C 668.250 69.572,665.329 76.547,664.227 79.014 C 661.557 84.986,630.675 159.128,628.203 165.500 C 627.136 168.250,623.729 176.661,620.632 184.192 C 617.534 191.722,615.000 198.368,615.000 198.961 C 615.000 199.706,621.960 199.955,637.604 199.769 L 660.207 199.500 665.901 185.500 C 669.033 177.800,672.473 169.700,673.547 167.500 L 675.500 163.500 715.219 163.239 L 754.939 162.977 756.324 165.239 C 757.086 166.482,760.573 174.813,764.072 183.750 L 770.434 200.000 793.717 200.000 C 806.523 200.000,817.000 199.718,817.000 199.373 C 817.000 198.775,792.314 138.744,789.500 132.500 C 788.756 130.850,784.351 120.275,779.711 109.000 C 772.089 90.478,763.103 69.409,759.452 61.500 C 758.690 59.850,754.261 49.500,749.610 38.500 L 741.153 18.500 715.611 18.233 L 690.069 17.966 688.511 20.980 M833.245 108.750 L 833.500 199.500 901.772 199.757 L 970.044 200.014 969.772 181.257 L 969.500 162.500 923.750 162.240 L 878.000 161.980 877.924 159.740 C 877.882 158.508,877.912 131.979,877.991 100.787 C 878.071 69.595,877.816 38.207,877.427 31.037 L 876.718 18.000 854.854 18.000 L 832.989 18.000 833.245 108.750 M338.846 55.628 C 351.503 59.272,361.788 66.587,369.370 77.338 C 374.583 84.728,376.630 90.497,378.185 102.177 C 379.196 109.769,379.116 112.053,377.583 119.222 C 375.096 130.860,370.747 139.165,363.000 147.075 C 345.656 164.783,317.648 168.268,293.680 155.699 C 286.322 151.840,276.068 140.914,271.946 132.541 C 266.419 121.315,265.601 102.720,270.046 89.363 C 275.363 73.384,286.776 62.582,305.301 55.995 C 312.282 53.513,330.796 53.310,338.846 55.628 M538.000 57.469 C 558.271 63.687,569.755 75.203,574.636 94.207 C 576.873 102.919,576.046 119.157,572.932 127.643 C 569.303 137.533,562.450 146.863,555.289 151.664 C 542.706 160.099,533.858 161.982,506.750 161.992 L 488.000 162.000 488.000 108.371 L 488.000 54.742 510.250 55.262 C 527.103 55.656,533.834 56.191,538.000 57.469 M721.108 76.067 C 723.642 82.355,728.310 93.800,731.480 101.500 C 740.422 123.219,741.138 125.198,740.583 126.645 C 739.836 128.590,690.186 128.648,689.440 126.705 C 689.037 125.655,695.956 107.424,702.421 92.500 C 703.136 90.850,706.102 83.748,709.013 76.718 C 711.924 69.687,714.800 64.092,715.403 64.284 C 716.006 64.476,718.574 69.778,721.108 76.067 M196.367 182.918 C 191.447 185.918,190.000 188.737,190.000 195.323 C 190.000 200.646,190.313 201.513,193.321 204.521 C 200.558 211.758,212.930 209.838,217.630 200.749 C 219.494 197.143,219.005 191.183,216.536 187.414 C 212.496 181.249,202.689 179.063,196.367 182.918 M633.608 266.991 C 619.408 269.557,612.011 276.443,612.004 287.102 C 611.996 298.364,619.118 303.551,639.292 306.978 C 652.098 309.153,660.252 312.094,662.542 315.364 C 663.344 316.508,664.000 319.098,664.000 321.119 C 664.000 324.069,663.307 325.401,660.482 327.882 C 655.822 331.973,653.502 332.506,640.500 332.469 C 628.934 332.436,625.548 331.422,617.756 325.662 L 614.951 323.588 611.876 326.662 L 608.801 329.737 610.897 331.689 C 617.385 337.734,631.745 341.469,645.500 340.688 C 655.395 340.127,662.164 337.965,667.592 333.634 C 675.899 327.006,676.104 314.472,668.015 307.666 C 663.259 303.664,658.861 302.118,646.000 299.929 C 624.937 296.343,621.277 294.109,622.254 285.440 C 622.534 282.953,623.499 280.106,624.398 279.113 C 626.865 276.387,633.255 274.869,642.555 274.800 C 650.105 274.745,651.631 275.078,658.270 278.230 L 665.622 281.722 668.311 279.409 C 669.790 278.137,671.000 276.631,671.000 276.062 C 671.000 274.600,664.306 270.361,659.110 268.534 C 653.684 266.625,640.159 265.807,633.608 266.991 M326.698 268.781 C 325.764 269.813,325.000 270.919,325.000 271.238 C 325.000 271.557,320.671 280.746,315.380 291.659 C 304.819 313.439,294.000 337.003,294.000 338.222 C 294.000 338.650,296.046 339.000,298.546 339.000 L 303.092 339.000 307.171 330.500 L 311.249 322.000 331.430 322.000 L 351.611 322.000 355.556 330.250 L 359.500 338.500 363.886 338.814 C 366.298 338.987,368.616 338.762,369.037 338.314 C 369.459 337.866,366.476 330.750,362.409 322.500 C 358.342 314.250,353.920 305.025,352.582 302.000 C 349.716 295.520,338.304 271.167,337.118 269.000 C 335.836 266.659,328.754 266.510,326.698 268.781 M409.465 268.139 C 408.890 268.950,408.500 283.453,408.500 304.000 L 408.500 338.500 413.218 338.803 L 417.936 339.107 418.218 327.303 L 418.500 315.500 434.500 314.913 C 453.328 314.223,458.202 312.850,464.620 306.433 C 469.700 301.353,471.443 295.960,470.696 287.639 C 470.116 281.179,467.114 276.406,461.025 272.260 C 455.471 268.480,451.229 267.787,430.465 267.274 C 414.277 266.873,410.244 267.039,409.465 268.139 M512.904 268.618 C 512.358 269.274,512.082 283.956,512.237 304.118 L 512.500 338.500 517.000 338.500 L 521.500 338.500 521.781 326.852 L 522.062 315.204 538.281 314.815 C 553.581 314.449,554.826 314.268,560.257 311.637 C 576.696 303.673,578.785 281.833,564.000 272.500 C 557.020 268.094,549.712 266.928,530.936 267.228 C 519.866 267.404,513.506 267.895,512.904 268.618 M449.179 276.630 C 456.309 278.631,459.507 281.457,461.027 287.099 C 463.298 295.536,458.554 303.481,449.798 305.902 C 447.162 306.630,440.280 306.976,432.000 306.795 L 418.500 306.500 418.221 292.046 C 418.068 284.096,418.166 277.009,418.440 276.296 C 419.206 274.300,441.748 274.545,449.179 276.630 M551.592 276.236 C 554.133 276.915,557.817 278.859,559.779 280.555 C 562.987 283.328,563.390 284.244,563.782 289.659 C 564.335 297.306,562.456 301.186,556.729 304.223 C 552.994 306.204,550.718 306.508,537.250 306.823 L 522.000 307.179 522.000 291.090 L 522.000 275.000 534.486 275.000 C 541.353 275.000,549.051 275.556,551.592 276.236 M333.560 281.250 C 333.942 282.488,336.035 287.325,338.209 292.000 C 343.523 303.422,347.000 311.718,347.000 312.970 C 347.000 314.086,316.817 314.484,315.716 313.382 C 315.376 313.043,317.027 308.880,319.384 304.132 C 321.741 299.385,325.206 291.793,327.085 287.263 C 330.567 278.865,332.321 277.237,333.560 281.250 " stroke="none" fill="black" fill-rule="evenodd"/></svg>