<?xml version="1.0" encoding="utf-8"?>
<!DOCTYPE svg PUBLIC "-//W3C//DTD SVG 1.0//EN" "http://www.w3.org/TR/2001/REC-SVG-20010904/DTD/svg10.dtd">
<svg version="1.0" xmlns="http://www.w3.org/2000/svg" width="620px" height="180px" viewBox="205 350 620 180" preserveAspectRatio="xMinYMid meet">
 <g fill="#ffffff">
  <path d="M597.9 577 c-5.1 -0.9 -11.2 -3.5 -12.9 -5.4 -0.7 -0.9 -0.5 -1.8 0.9 -3 1.8 -1.7 2.1 -1.6 5.8 0.8 4.6 3.1 13.1 4.3 19 2.7 5.5 -1.5 7.5 -3.6 7.1 -7.5 -0.4 -4 -4.5 -6.1 -15.6 -8.1 -9.3 -1.6 -11.2 -2.4 -14.1 -6.1 -3.9 -5 -2.2 -11.9 3.8 -15.7 3.1 -1.9 5 -2.2 13.6 -2.2 8.8 0 10.5 0.3 13.8 2.4 3.8 2.3 3.8 2.4 2 4.3 -1.9 1.8 -2 1.8 -6.7 -0.3 -6.8 -3 -17.9 -2.4 -20.7 1 -4.5 5.6 -1.2 9.6 9.6 11.7 12 2.2 15.4 3.5 18.1 6.7 5.9 7 1.2 16.3 -9.4 18.6 -5.8 1.2 -7.5 1.2 -14.3 0.1z"/>
  <path d="M391 576 c0 -1.3 18.8 -41.1 20.3 -42.8 0.5 -0.7 2.1 -1.2 3.4 -1 1.9 0.3 3.8 3.5 12.3 21.3 5.5 11.6 10 21.6 10 22.3 0 0.9 -1 1.2 -2.7 1 -2.3 -0.2 -3.3 -1.3 -5.3 -5.5 l-2.5 -5.3 -12.5 0 -12.6 0 -2.7 5.5 c-2.2 4.5 -3.1 5.5 -5.2 5.5 -1.4 0 -2.5 -0.4 -2.5 -1z m33 -15.4 c0 -0.2 -2 -4.7 -4.5 -10 -2.5 -5.3 -4.5 -10.1 -4.5 -10.6 0 -0.6 -0.4 -1 -1 -1 -0.5 0 -1 0.5 -1 1.1 0 0.7 -2 5.4 -4.5 10.7 -2.5 5.2 -4.5 9.6 -4.5 9.8 0 0.2 4.5 0.4 10 0.4 5.5 0 10 -0.2 10 -0.4z"/>
  <path d="M461.4 575.7 c-0.2 -0.7 -0.3 -10.7 -0.2 -22.2 l0.3 -21 13.5 0.1 c14.6 0 17.2 0.7 22 5.9 2 2.1 2.5 3.7 2.5 8 0 10.4 -6.1 14.6 -22.1 15.3 l-10.4 0.5 0 7.3 c0 7.2 -0.1 7.4 -2.5 7.4 -1.4 0 -2.8 -0.6 -3.1 -1.3z m26 -20.1 c8.7 -3.6 8.8 -13.8 0.2 -17.1 -2.8 -1.1 -6.6 -1.5 -12.1 -1.3 l-8 0.3 -0.3 9.8 -0.3 9.7 8.6 0 c5.1 0 9.9 -0.6 11.9 -1.4z"/>
  <path d="M525 554.5 l0 -22.7 13.3 0.4 c14.9 0.3 18.2 1.5 22.5 7.9 1.9 2.7 2.3 4.3 1.9 7.8 -1 9.4 -7.2 13.3 -21.9 13.9 l-9.7 0.4 -0.3 7.2 c-0.3 6.9 -0.4 7.1 -3 7.4 l-2.8 0.3 0 -22.6z m23.9 1.9 c8 -1.6 10.6 -9.5 5.2 -15.6 -2.8 -3.2 -3.1 -3.2 -13 -3.6 l-10.1 -0.4 0 10.1 0 10.1 7.4 0 c4 0 8.7 -0.3 10.5 -0.6z"/>
  <path d="M334 496.2 c-3.9 -0.6 -7 -4.1 -7 -7.8 0 -4.6 0.9 -6.3 4.1 -7.9 4.3 -2.3 7.7 -1.8 11 1.4 6.4 6.4 1.1 15.7 -8.1 14.3z"/>
  <path d="M390.3 490.5 c-12 -3.3 -25.4 -12.1 -32.1 -20.8 -5.4 -7 -8 -12.4 -10.3 -21.4 -5 -19.9 0.7 -40 15.5 -54 11.5 -11 22.8 -15.7 40.3 -17 21.2 -1.4 38.3 4.7 52.1 18.8 13.2 13.4 18.3 35.8 12.6 55 -5 16.8 -17.4 30 -34.8 37 -7.7 3.1 -8.8 3.3 -23.1 3.6 -10.9 0.2 -16.4 -0.1 -20.2 -1.2z m34.4 -25.8 c6.9 -3.6 12 -8.8 15.1 -15.6 2.2 -4.8 2.6 -7 2.6 -15.1 0 -7.9 -0.4 -10.2 -2.3 -13.8 -3.4 -6.6 -9.7 -12.8 -16 -15.9 -5 -2.5 -6.7 -2.8 -15.6 -2.8 -9 0 -10.6 0.3 -15.5 2.8 -10.5 5.4 -16.2 13.2 -18.1 24.7 -1.5 9.6 0.5 18.1 5.9 25.6 7.1 9.7 16 13.6 29.7 13.1 7.4 -0.3 9.9 -0.8 14.2 -3z"/>
  <path d="M221.2 441.8 l0.3 -49.2 3.7 -0.9 c4.5 -1.1 9.8 -6.6 9.8 -10.2 0 -2.5 0.1 -2.5 9.3 -2.5 l9.2 0.1 8 10.5 c4.4 5.8 10.9 14.2 14.3 18.7 3.5 4.5 8.9 11.6 12 15.7 3.1 4.1 8.5 11.2 12.1 15.8 l6.6 8.3 0.3 -34.5 0.2 -34.6 14 0 14 0 0 48 0 48 -2.7 0 c-3.4 0 -8.2 3 -9.9 6.2 -0.8 1.3 -1.3 4 -1.4 6.1 l0 3.7 -7.7 0 -7.8 -0.1 -7.6 -10.2 c-8.6 -11.4 -11.9 -15.7 -33.4 -43.7 l-15 -19.5 -0.5 36.5 -0.5 36.5 -13.8 0.3 -13.7 0.3 0.2 -49.3z"/>
  <path d="M483 435.1 l0 -56.1 27.9 0 c31 0 36.7 0.7 49.8 6.2 5.9 2.4 9.3 4.7 15 10.1 10.9 10.4 16.3 23.1 16.3 38.2 -0.1 27.4 -15.3 47.5 -41.7 54.7 -6.9 1.9 -11 2.2 -37.5 2.6 l-29.8 0.4 0 -56.1z m61.4 29.9 c11.9 -4.6 18.8 -14.8 19.4 -29 0.7 -14.8 -4.6 -24.3 -16.6 -30.2 -6.5 -3.2 -7.1 -3.3 -21.9 -3.6 l-15.3 -0.4 0 33.2 0 33.3 14.3 -0.5 c11.4 -0.5 15.3 -1 20.1 -2.8z"/>
  <path d="M588 490.6 c0 -0.6 4.7 -12.9 6.4 -16.6 1.9 -4.3 30.6 -73.1 35.6 -85.5 l3.7 -9 15.9 -0.3 15.9 -0.2 10.7 25.2 c18.3 43.1 35.8 85.2 35.8 86.1 0 0.4 -6.4 0.7 -14.2 0.7 l-14.3 0 -4.5 -11.5 -4.5 -11.5 -24.6 0 -24.7 0 -4.7 11.5 -4.8 11.5 -13.8 0 c-7.7 0 -13.9 -0.2 -13.9 -0.4z m77.6 -44.9 c0.2 -0.2 -11.4 -29.3 -14.7 -36.7 -1 -2.3 -1.1 -2.4 -2.1 -0.5 -0.6 1 -4.4 9.9 -8.4 19.6 -4.8 11.9 -6.9 17.9 -6.1 18.3 1.2 0.4 30.8 -0.2 31.3 -0.7z"/>
  <path d="M722 435 l0 -56 13.5 0 13.5 0 0.2 44.3 0.3 44.2 28.3 0.3 28.2 0.2 0 11.5 0 11.5 -42 0 -42 0 0 -56z"/>
  <path d="M214 385 c-6.3 -6.3 -0.5 -16.2 8.6 -14.5 6.3 1.1 8.8 9.3 4.3 14.1 -2.9 3.1 -9.9 3.4 -12.9 0.4z"/>
 </g>
</svg>
